:SAMPLES-PER-SECOND 30
:FRAME-RANGE 1-2009
:FULLY-SPECIFIED
:DEGREES
63
root  -47.4153 39.0261 -122.909 4.31628 44.3453 1.83064
RightUpLeg  -9.00662 0.696941 6.74162
RightLeg  14.2684 -1.45101 -1.08956
RightFoot  -9.62076 0.0297859 -6.29714
RightToes  4.71047e-010 1.2921e-014 -6.02303e-014
Spine  9.10604 -0.517282 1.72403
Spine1  0.083944 -1.95615 8.31161
HEad  2.06774 38.7009 -5.07836
LeftShoulder1  1.84931 -3.52741 -19.8338
LeftArm  90.8016 -5.1765 -26.7357
LeftForeArm  -7.06377 -24.4814 -5.58925
LeftHand  -0.278446 -0.365286 5.69856
RightShoulder  7.74405 10.6507 47.9166
RightArm  22.0341 -1.93206 16.9717
RightForeArm  10.0968 42.8625 9.72576
RightHand  0.222847 -1.37299 6.73287
LeftUpLeg  -23.5116 8.56495 6.69895
LeftLeg  43.4361 1.55038 1.95932
LeftFoot  -4.35963 0.458903 -7.08911
LeftToes  2.15783e-011 -7.56106e-012 -8.20802e-012
64
root  -46.4132 39.3305 -122.754 5.1235 39.4168 2.68176
RightUpLeg  -6.37783 0.55092 5.20202
RightLeg  10.9738 3.57654 -1.08249
RightFoot  -8.90876 0.050843 -5.22212
RightToes  4.71047e-010 1.2921e-014 -6.02303e-014
Spine  8.75978 -0.373662 1.88439
Spine1  -0.539296 -1.35463 5.78245
HEad  2.83398 40.4557 -4.12074
LeftShoulder1  1.68046 -2.62028 -21.0458
LeftArm  90.9751 1.61375 -24.2498
LeftForeArm  -6.3818 -23.7473 -5.39811
LeftHand  -0.317986 0.0975465 7.02417
RightShoulder  7.80934 10.5535 48.6618
RightArm  21.3308 -2.72459 17.0991
RightForeArm  10.8351 45.8348 10.7857
RightHand  0.265934 -1.53322 8.354
LeftUpLeg  -20.9757 5.5096 7.04597
LeftLeg  31.8199 2.06187 1.72121
LeftFoot  -4.15774 0.521546 -7.90399
LeftToes  2.15783e-011 -7.56106e-012 -8.20802e-012
65
root  -45.4135 39.5103 -122.539 5.36584 34.8365 2.80872
RightUpLeg  -4.44888 0.281666 3.94345
RightLeg  8.98457 8.40801 -1.13643
RightFoot  -8.8074 0.0383361 -4.42
RightToes  4.71047e-010 1.2921e-014 -6.02303e-014
Spine  7.90348 0.1618 1.71717
Spine1  -0.447803 -0.659324 4.73469
HEad  3.10873 41.1025 -3.9991
LeftShoulder1  1.57088 -1.95165 -22.4797
LeftArm  91.8897 7.07766 -21.6472
LeftForeArm  -6.25434 -23.1395 -5.53328
LeftHand  -0.321684 1.21881 8.89003
RightShoulder  7.26413 9.63862 48.4192
RightArm  21.9195 -3.86574 17.123
RightForeArm  12.2019 47.1328 11.2121
RightHand  0.236373 -1.58352 7.566
LeftUpLeg  -18.3151 0.781433 7.93857
LeftLeg  21.1052 1.27812 0.867636
LeftFoot  -3.8147 0.501456 -7.27026
LeftToes  2.15783e-011 -7.56106e-012 -8.20802e-012
66
root  -44.4259 39.5656 -122.292 4.82782 30.6274 2.37463
RightUpLeg  -2.79964 0.508924 3.29169
RightLeg  8.39771 12.254 -1.60834
RightFoot  -9.50329 -0.0110129 -3.31654
RightToes  4.71047e-010 1.2921e-014 -6.02303e-014
Spine  7.73161 0.618258 1.92639
Spine1  -0.716575 -0.00701086 3.84517
HEad  3.65123 41.5069 -3.62488
LeftShoulder1  1.42791 -1.3115 -23.3808
LeftArm  91.3113 11.4391 -18.9104
LeftForeArm  -4.64838 -22.4616 -5.92924
LeftHand  -0.330285 1.78218 10.4972
RightShoulder  6.71896 8.65282 48.4225
RightArm  22.8116 -4.87173 16.5186
RightForeArm  10.9961 46.4794 11.0324
RightHand  0.257163 -1.52742 8.0745
LeftUpLeg  -15.8307 -1.73949 8.38778
LeftLeg  13.2447 -2.53715 -0.0309131
LeftFoot  -4.0741 0.564199 -8.49002
LeftToes  2.15783e-011 -7.56106e-012 -8.20802e-012
67
root  -43.4315 39.4606 -122.021 3.88591 27.0323 1.4814
RightUpLeg  -2.04864 1.93616 3.49128
RightLeg  10.2115 14.4015 -2.43299
RightFoot  -11.5502 -0.082737 -2.54872
RightToes  4.71047e-010 1.2921e-014 -6.02303e-014
Spine  7.70825 0.926767 2.45902
Spine1  -1.07586 0.448413 3.35876
HEad  4.68955 41.6371 -3.17865
LeftShoulder1  1.28636 -0.810362 -23.548
LeftArm  89.9565 14.4485 -16.9342
LeftForeArm  -3.59313 -21.8966 -6.42953
LeftHand  -0.326216 2.20661 11.7044
RightShoulder  6.24437 7.71172 48.7852
RightArm  24.1431 -5.84869 15.4341
RightForeArm  9.87605 43.8107 10.0824
RightHand  0.256654 -1.38902 7.7521
LeftUpLeg  -13.5541 2.57924 7.87359
LeftLeg  8.37624 -11.8142 -0.807536
LeftFoot  -4.29254 0.875592 -13.7468
LeftToes  2.15783e-011 -7.56106e-012 -8.20802e-012
68
root  -42.5006 39.3228 -121.735 2.81551 24.334 1.08128
RightUpLeg  -0.981999 9.45992 3.4167
RightLeg  12.5451 9.57611 -2.86094
RightFoot  -13.7559 -0.106312 -0.628698
RightToes  4.71047e-010 1.2921e-014 -6.02303e-014
Spine  7.89437 0.916642 1.28218
Spine1  -0.807653 0.339096 3.68089
HEad  5.89439 40.999 -2.73871
LeftShoulder1  1.20213 -0.524955 -23.5677
LeftArm  85.262 16.712 -15.8736
LeftForeArm  -0.953466 -21.1963 -7.04393
LeftHand  -0.340133 2.26254 12.4331
RightShoulder  5.90654 7.10805 48.7743
RightArm  26.7952 -5.82804 14.509
RightForeArm  7.82862 38.5393 8.44726
RightHand  0.25874 -1.11628 7.2636
LeftUpLeg  -12.3742 5.69407 7.33735
LeftLeg  9.57275 -13.8351 -2.30861
LeftFoot  -1.84094 0.964795 -11.4495
LeftToes  2.15783e-011 -7.56106e-012 -8.20802e-012
69
root  -41.7125 39.0687 -121.524 2.51982 21.8221 2.024
RightUpLeg  -2.59538 22.1378 1.17239
RightLeg  18.914 -2.35539 -1.10926
RightFoot  -16.6967 -0.0488335 1.3724
RightToes  4.71047e-010 1.2921e-014 -6.02303e-014
Spine  8.82616 0.848397 -2.15511
Spine1  -1.36207 -0.0839404 4.27636
HEad  7.06148 40.2169 -1.92902
LeftShoulder1  1.17467 -0.459206 -23.3587
LeftArm  79.2476 18.7007 -15.4524
LeftForeArm  1.09963 -20.8796 -7.23189
LeftHand  -0.259139 2.63614 10.61
RightShoulder  5.81069 6.78221 49.5044
RightArm  30.6043 -4.92301 13.6296
RightForeArm  4.84548 31.3531 6.61468
RightHand  0.236567 -0.875618 6.2612
LeftUpLeg  -12.7726 5.5396 5.83642
LeftLeg  14.737 -11.2879 -2.97646
LeftFoot  -5.27424 0.590468 -10.5247
LeftToes  2.15783e-011 -7.56106e-012 -8.20802e-012
70
root  -40.9953 38.8178 -121.286 2.38416 19.5994 3.13057
RightUpLeg  -6.27849 15.8288 -1.12189
RightLeg  28.0838 -0.86483 -0.728288
RightFoot  -17.6703 0.175696 5.34196
RightToes  4.71047e-010 1.2921e-014 -6.02303e-014
Spine  9.28062 0.702709 -5.16304
Spine1  -1.35789 -0.584939 4.57816
HEad  8.54685 38.6477 -0.485209
LeftShoulder1  1.19781 -0.533876 -23.3857
LeftArm  73.573 19.0796 -15.9851
LeftForeArm  3.52733 -20.4103 -7.58909
LeftHand  -0.323842 2.11834 11.3109
RightShoulder  5.70602 6.35862 50.6914
RightArm  35.8554 -3.59022 13.1147
RightForeArm  -0.89204 23.5952 5.10442
RightHand  0.21711 -0.21279 4.92618
LeftUpLeg  -12.8127 6.98253 4.22053
LeftLeg  18.6371 -10.7343 -3.75041
LeftFoot  -8.41833 0.32359 -10.6871
LeftToes  2.15783e-011 -7.56106e-012 -8.20802e-012
71
root  -40.2725 38.7324 -121.053 2.33304 16.4085 3.63681
RightUpLeg  -10.667 9.0427 -2.84201
RightLeg  36.8215 -0.480796 -0.643543
RightFoot  -14.7539 0.216514 10.6106
RightToes  4.71047e-010 1.2921e-014 -6.02303e-014
Spine  9.16686 0.504921 -5.72544
Spine1  -1.33044 -0.606965 2.71538
HEad  10.0323 37.3933 -0.0193179
LeftShoulder1  1.22223 -0.52141 -24.1199
LeftArm  67.1198 18.0024 -17.4869
LeftForeArm  4.85283 -18.7985 -9.36197
LeftHand  -0.259678 2.59085 10.4651
RightShoulder  5.77302 6.28772 51.6389
RightArm  23.7052 -2.66963 11.7969
RightForeArm  8.9074 14.4168 11.2676
RightHand  0.115298 -0.237346 2.64561
LeftUpLeg  -12.005 10.101 3.13166
LeftLeg  20.2808 -10.6538 -4.35627
LeftFoot  -10.3927 0.143363 -9.79462
LeftToes  2.15783e-011 -7.56106e-012 -8.20802e-012
72
root  -39.5332 38.8318 -120.762 2.15959 13.1691 3.4771
RightUpLeg  -15.0792 4.80012 -3.0463
RightLeg  44.0743 -2.55809 -2.94848
RightFoot  -8.7535 -0.314202 11.2337
RightToes  4.71047e-010 1.2921e-014 -6.02303e-014
Spine  9.03838 0.439137 -5.55968
Spine1  -1.81233 -0.567124 2.19301
HEad  11.1321 36.6862 -0.931306
LeftShoulder1  1.21793 -0.380352 -25.1561
LeftArm  57.1543 15.7092 -20.5105
LeftForeArm  9.54452 -15.9373 -12.0223
LeftHand  -0.304021 2.28511 11.1503
RightShoulder  5.45714 5.81907 51.2787
RightArm  10.9582 -2.70607 10.8488
RightForeArm  15.698 6.66109 14.887
RightHand  0.0674872 -1.17335 2.05761
LeftUpLeg  -10.258 11.5206 2.71709
LeftLeg  19.7365 -9.04367 -4.06793
LeftFoot  -11.45 0.0596863 -9.23912
LeftToes  2.15783e-011 -7.56106e-012 -8.20802e-012
73
root  -38.8679 38.9257 -120.416 2.01039 10.2929 3.16179
RightUpLeg  -18.9784 1.52826 -2.44743
RightLeg  49.3782 -4.62687 -6.09695
RightFoot  -6.3312 -0.482761 10.0228
RightToes  4.71047e-010 1.2921e-014 -6.02303e-014
Spine  8.95349 0.293384 -5.47436
Spine1  -2.49427 -0.675317 2.10387
HEad  12.8688 35.8709 -0.742953
LeftShoulder1  1.16735 -0.129944 -25.9535
LeftArm  44.9502 12.4071 -24.7833
LeftForeArm  13.9627 -12.5122 -14.4035
LeftHand  -0.245909 2.47325 9.49373
RightShoulder  5.03553 5.23566 50.4945
RightArm  8.06395 -3.78467 10.2867
RightForeArm  13.7227 3.40908 16.0023
RightHand  0.0632686 -2.97329 3.93412
LeftUpLeg  -8.51717 12.335 2.6611
LeftLeg  19.0339 -7.21798 -3.92312
LeftFoot  -12.5499 -0.0221914 -9.20367
LeftToes  2.15783e-011 -7.56106e-012 -8.20802e-012
74
root  -38.274 39.0509 -120.053 1.87521 7.75056 2.75706
RightUpLeg  -22.1447 -1.65673 -1.58465
RightLeg  51.5567 -4.74835 -6.74699
RightFoot  -6.80208 -0.469567 10.6475
RightToes  4.71047e-010 1.2921e-014 -6.02303e-014
Spine  8.87065 -0.0218707 -5.47599
Spine1  -3.05621 -0.963578 2.16078
HEad  13.539 35.4474 -0.659027
LeftShoulder1  1.16707 -0.0605399 -26.5929
LeftArm  37.1435 7.72609 -29.5528
LeftForeArm  14.4163 -9.58339 -16.0631
LeftHand  -0.185412 3.02147 8.58527
RightShoulder  4.808 4.89708 50.1633
RightArm  10.0518 -4.62287 9.30186
RightForeArm  14.03 2.10414 16.6457
RightHand  0.103878 -2.44008 4.71206
LeftUpLeg  -6.48957 12.4549 2.98693
LeftLeg  17.5929 -5.08931 -4.19366
LeftFoot  -13.174 -0.068397 -9.18626
LeftToes  2.15783e-011 -7.56106e-012 -8.20802e-012
75
root  -37.7345 39.1361 -119.659 1.73878 5.65848 2.35439
RightUpLeg  -24.7564 -4.18962 -0.608123
RightLeg  51.1445 -4.5555 -6.3945
RightFoot  -7.19905 -0.49144 12.1867
RightToes  4.71047e-010 1.2921e-014 -6.02303e-014
Spine  8.47351 -0.510521 -5.8984
Spine1  -2.98593 -1.51579 2.71488
HEad  13.5782 35.5209 -0.506731
LeftShoulder1  1.26834 -0.293158 -27.2788
LeftArm  29.7301 1.87331 -34.424
LeftForeArm  13.7983 -6.58943 -17.3119
LeftHand  -0.0869993 4.24242 7.1101
RightShoulder  4.57782 4.62135 49.391
RightArm  12.6842 -4.83439 9.01277
RightForeArm  17.3632 0.753976 17.1035
RightHand  0.166764 -1.12966 4.76233
LeftUpLeg  -4.54616 11.8519 3.28481
LeftLeg  16.1325 -2.6973 -4.50038
LeftFoot  -13.7141 -0.113273 -9.41288
LeftToes  2.15783e-011 -7.56106e-012 -8.20802e-012
